<svg width="40" height="40" viewBox="0 0 40 40" fill="none" xmlns="http://www.w3.org/2000/svg">
<path d="M20.5251 19.7006C20.6939 19.8647 20.6939 20.1352 20.5251 20.2994C19.6768 21.1247 17.2059 23.5379 14.7293 26.0467C14.1695 26.6137 13.9529 27.4197 14.4269 28.0547C14.6209 28.3147 14.879 28.6092 15.2216 28.9252C15.6879 29.3555 16.1319 29.6432 16.5019 29.8346C17.1079 30.1478 17.8172 29.9881 18.3674 29.5909C22.674 26.4826 25.611 23.1267 27.0314 21.3247C27.6562 20.5322 27.6562 19.4678 27.0314 18.6752C25.611 16.8733 22.674 13.5174 18.3674 10.4091C17.8172 10.0119 17.1079 9.85216 16.5019 10.1654C16.1319 10.3567 15.6879 10.6445 15.2216 11.0747C14.879 11.3908 14.6209 11.6853 14.4269 11.9452C13.9529 12.5802 14.1695 13.3863 14.7293 13.9532C17.2059 16.4621 19.6768 18.8753 20.5251 19.7006Z" fill="white"/>
</svg>
