<svg width="24" height="24" viewBox="0 0 24 24" fill="none" xmlns="http://www.w3.org/2000/svg">
<path fill-rule="evenodd" clip-rule="evenodd" d="M21.5302 11.4699C21.6706 11.6105 21.7495 11.8012 21.7495 11.9999C21.7495 12.1987 21.6706 12.3893 21.5302 12.5299L14.0302 20.0299C13.9615 20.1036 13.8787 20.1627 13.7867 20.2037C13.6947 20.2447 13.5954 20.2667 13.4947 20.2685C13.394 20.2703 13.294 20.2518 13.2006 20.214C13.1072 20.1763 13.0224 20.1202 12.9511 20.0489C12.8799 19.9777 12.8238 19.8929 12.786 19.7995C12.7483 19.7061 12.7298 19.6061 12.7316 19.5054C12.7334 19.4047 12.7554 19.3054 12.7964 19.2134C12.8374 19.1214 12.8965 19.0386 12.9702 18.9699L19.1902 12.7499L3.00017 12.7499C2.80126 12.7499 2.61049 12.6709 2.46984 12.5302C2.32919 12.3896 2.25017 12.1988 2.25017 11.9999C2.25017 11.801 2.32919 11.6102 2.46984 11.4696C2.61049 11.3289 2.80126 11.2499 3.00017 11.2499L19.1902 11.2499L12.9702 5.02991C12.8965 4.96125 12.8374 4.87845 12.7964 4.78645C12.7554 4.69445 12.7334 4.59513 12.7316 4.49443C12.7298 4.39373 12.7483 4.2937 12.786 4.20031C12.8238 4.10692 12.8799 4.02209 12.9511 3.95087C13.0224 3.87965 13.1072 3.82351 13.2006 3.78579C13.294 3.74807 13.394 3.72954 13.4947 3.73132C13.5954 3.73309 13.6947 3.75514 13.7867 3.79613C13.8787 3.83712 13.9615 3.89622 14.0302 3.96991L21.5302 11.4699Z" fill="#5121FF"/>
</svg>
