<svg width="32" height="32" viewBox="0 0 32 32" fill="none" xmlns="http://www.w3.org/2000/svg">
<rect width="32" height="32" rx="12" transform="matrix(-1 0 0 1 32 0)" fill="#ECEFF2"/>
<path d="M15.6849 15.8203C15.5837 15.9188 15.5837 16.0811 15.6849 16.1796C16.1939 16.6748 17.6764 18.1227 19.1624 19.628C19.4983 19.9682 19.6282 20.4518 19.3438 20.8328C19.2274 20.9888 19.0726 21.1655 18.867 21.3551C18.5872 21.6133 18.3209 21.7859 18.0989 21.9007C17.7353 22.0887 17.3097 21.9928 16.9796 21.7545C14.3956 19.8895 12.6334 17.876 11.7811 16.7948C11.4063 16.3193 11.4063 15.6807 11.7811 15.2051C12.6334 14.124 14.3956 12.1104 16.9796 10.2454C17.3097 10.0071 17.7353 9.9113 18.0989 10.0992C18.3209 10.214 18.5872 10.3867 18.867 10.6448C19.0726 10.8345 19.2274 11.0112 19.3438 11.1671C19.6282 11.5481 19.4983 12.0318 19.1624 12.3719C17.6764 13.8772 16.1939 15.3252 15.6849 15.8203Z" fill="#5121FF"/>
</svg>
