<svg width="24" height="24" viewBox="0 0 24 24" fill="none" xmlns="http://www.w3.org/2000/svg">
<path fill-rule="evenodd" clip-rule="evenodd" d="M2.46983 11.4702C2.32938 11.6108 2.25049 11.8014 2.25049 12.0002C2.25049 12.1989 2.32938 12.3895 2.46983 12.5302L9.96983 20.0302C10.0385 20.1038 10.1213 20.1629 10.2133 20.2039C10.3053 20.2449 10.4046 20.267 10.5053 20.2687C10.606 20.2705 10.706 20.252 10.7994 20.2143C10.8928 20.1766 10.9776 20.1204 11.0489 20.0492C11.1201 19.978 11.1762 19.8931 11.214 19.7998C11.2517 19.7064 11.2702 19.6063 11.2684 19.5056C11.2666 19.4049 11.2446 19.3056 11.2036 19.2136C11.1626 19.1216 11.1035 19.0388 11.0298 18.9702L4.80983 12.7502L20.9998 12.7502C21.1987 12.7502 21.3895 12.6711 21.5302 12.5305C21.6708 12.3898 21.7498 12.1991 21.7498 12.0002C21.7498 11.8012 21.6708 11.6105 21.5302 11.4698C21.3895 11.3292 21.1987 11.2502 20.9998 11.2502L4.80983 11.2502L11.0298 5.03015C11.1035 4.96149 11.1626 4.87869 11.2036 4.78669C11.2446 4.69469 11.2666 4.59538 11.2684 4.49468C11.2702 4.39397 11.2517 4.29394 11.214 4.20056C11.1762 4.10717 11.1201 4.02233 11.0489 3.95111C10.9776 3.8799 10.8928 3.82375 10.7994 3.78603C10.706 3.74831 10.606 3.72978 10.5053 3.73156C10.4046 3.73334 10.3053 3.75538 10.2133 3.79637C10.1213 3.83736 10.0385 3.89647 9.96983 3.97015L2.46983 11.4702Z" fill="#5121FF"/>
</svg>
